HIERARCHY
ROOT Hips
{
	OFFSET -0.001795 -0.223333 0.028219
	CHANNELS 6 Xposition Yposition Zposition Zrotation Yrotation Xrotation 
	JOINT LeftUpLeg
	{
		OFFSET 0.069520 -0.091406 -0.006815
		CHANNELS 3 Zrotation Yrotation Xrotation
		JOINT LeftLeg
		{
			OFFSET 0.034277 -0.375199 -0.004496
			CHANNELS 3 Zrotation Yrotation Xrotation
			JOINT LeftFoot
			{
				OFFSET -0.013596 -0.397961 -0.043693
				CHANNELS 3 Zrotation Yrotation Xrotation
				JOINT LeftToe
				{
					OFFSET 0.026358 -0.055791 0.119288
					CHANNELS 3 Zrotation Yrotation Xrotation
					End Site
					{
						OFFSET 0.000000 0.000000 0.000000
					}
				}
			}
		}
	}
	JOINT RightUpLeg
	{
		OFFSET -0.067670 -0.090522 -0.004320
		CHANNELS 3 Zrotation Yrotation Xrotation
		JOINT RightLeg
		{
			OFFSET -0.038290 -0.382569 -0.008850
			CHANNELS 3 Zrotation Yrotation Xrotation
			JOINT RightFoot
			{
				OFFSET 0.015774 -0.398415 -0.042312
				CHANNELS 3 Zrotation Yrotation Xrotation
				JOINT RightToe
				{
					OFFSET -0.025372 -0.048144 0.123348
					CHANNELS 3 Zrotation Yrotation Xrotation
					End Site
					{
						OFFSET 0.000000 0.000000 0.000000
					}
				}
			}
		}
	}
	JOINT Spine
	{
		OFFSET -0.002533 0.108963 -0.026696
		CHANNELS 3 Zrotation Yrotation Xrotation
		JOINT Spine1
		{
			OFFSET 0.005487 0.135180 0.001092
			CHANNELS 3 Zrotation Yrotation Xrotation
			JOINT Spine2
			{
				OFFSET 0.001457 0.052922 0.025425
				CHANNELS 3 Zrotation Yrotation Xrotation
				JOINT Neck
				{
					OFFSET -0.002778 0.213870 -0.042857
					CHANNELS 3 Zrotation Yrotation Xrotation
					JOINT Head
					{
						OFFSET 0.005152 0.064970 0.051349
						CHANNELS 3 Zrotation Yrotation Xrotation
						End Site
						{
							OFFSET 0.000000 0.000000 0.000000
						}
					}
				}
				JOINT LeftShoulder
				{
					OFFSET 0.078845 0.121749 -0.034090
					CHANNELS 3 Zrotation Yrotation Xrotation
					JOINT LeftArm
					{
						OFFSET 0.090977 0.030469 -0.008868
						CHANNELS 3 Zrotation Yrotation Xrotation
						JOINT LeftForeArm
						{
							OFFSET 0.259612 -0.012772 -0.027456
							CHANNELS 3 Zrotation Yrotation Xrotation
							JOINT LeftHand
							{
								OFFSET 0.249234 0.008986 -0.001171
								CHANNELS 3 Zrotation Yrotation Xrotation
								End Site
								{
									OFFSET 0.000000 0.000000 0.000000
								}
							}
						}
					}
				}
				JOINT RightShoulder
				{
					OFFSET -0.081759 0.118833 -0.038615
					CHANNELS 3 Zrotation Yrotation Xrotation
					JOINT RightArm
					{
						OFFSET -0.096012 0.032551 -0.009143
						CHANNELS 3 Zrotation Yrotation Xrotation
						JOINT RightForeArm
						{
							OFFSET -0.253742 -0.013329 -0.021401
							CHANNELS 3 Zrotation Yrotation Xrotation
							JOINT RightHand
							{
								OFFSET -0.255298 0.007772 -0.005559
								CHANNELS 3 Zrotation Yrotation Xrotation
								End Site
								{
									OFFSET 0.000000 0.000000 0.000000
								}
							}
						}
					}
				}
			}
		}
	}
}
MOTION
Frames: 15
Frame Time: 0.050000
0.043022 0.938218 0.122864 1.402877 10.892604 -0.961751 1.772089 -0.690990 -8.310098 -0.528775 -0.283578 7.853364 5.213438 12.923697 7.758896 0.000000 0.000000 0.000000 1.027723 -0.270737 2.238997 4.007078 -0.534893 -0.232452 -17.206076 -36.795003 9.716050 0.000000 0.000000 0.000000 0.765417 -0.146870 3.042477 -2.879038 1.357937 0.391578 4.215008 1.442712 12.455608 1.063180 1.863117 -23.903152 0.000000 0.000000 0.000000 -25.009119 -1.646238 -3.444747 -57.814035 -0.817789 -6.935307 0.380391 -30.343277 0.781458 0.000000 0.000000 0.000000 20.002408 7.315056 4.338654 53.250189 5.043603 -4.204011 4.407931 26.801419 2.260135 0.000000 0.000000 0.000000 
0.042972 0.938276 0.122519 1.491315 10.865329 -1.342229 1.784218 -0.716640 -8.623090 -0.929381 -0.258058 8.633132 5.520896 13.458361 7.908584 0.000000 0.000000 0.000000 0.853423 -0.341875 2.861842 4.179141 -0.557789 -0.877455 -17.398801 -36.966998 10.135115 0.000000 0.000000 0.000000 0.746005 -0.145940 3.060187 -3.151574 1.502724 0.019544 4.215285 1.552462 13.100615 0.661736 2.146186 -24.505856 0.000000 0.000000 0.000000 -24.338212 -1.257480 -3.570779 -58.054757 -1.185468 -6.891968 -0.319939 -30.066345 0.964819 0.000000 0.000000 0.000000 19.509602 6.706943 4.006252 53.884469 5.082179 -4.252679 5.058179 27.802332 2.544293 0.000000 0.000000 0.000000 
0.042535 0.938022 0.121879 1.561020 10.972074 -1.622735 1.926618 -0.737284 -8.939490 -1.318829 -0.230416 9.370719 5.736564 13.800681 7.864419 0.000000 0.000000 0.000000 0.868912 -0.391078 3.261552 4.373447 -0.584427 -1.157957 -17.509061 -37.307438 9.865891 0.000000 0.000000 0.000000 0.683157 -0.147166 3.139181 -3.200864 1.532038 -0.105515 3.954403 1.836737 13.481512 0.751580 2.151086 -24.448061 0.000000 0.000000 0.000000 -23.650142 -1.360298 -3.501751 -57.894893 -1.024138 -6.992811 -0.702161 -30.635796 1.055720 0.000000 0.000000 0.000000 19.068159 6.206612 3.802605 54.587564 5.171439 -4.263402 5.378409 28.844135 2.782296 0.000000 0.000000 0.000000 
0.042126 0.937473 0.120982 1.681906 10.856086 -1.884333 2.102842 -0.783175 -9.584227 -1.862795 -0.205842 10.920733 6.142127 14.348333 7.411979 0.000000 0.000000 0.000000 0.729368 -0.411883 3.469098 4.780216 -0.635953 -1.197553 -17.487551 -37.329545 9.716857 0.000000 0.000000 0.000000 0.626669 -0.159753 3.435606 -3.473970 1.673603 -0.491284 3.967984 1.842519 14.121989 0.253824 2.441935 -24.756582 0.000000 0.000000 0.000000 -23.310213 -1.301140 -3.444708 -57.673071 -1.639835 -6.746002 -1.306300 -30.478489 1.228379 0.000000 0.000000 0.000000 18.468182 5.798338 3.540655 55.355868 5.435933 -4.197212 5.394172 29.871544 2.940312 0.000000 0.000000 0.000000 
0.041840 0.936935 0.119739 1.708583 10.563098 -1.912727 2.339593 -0.877981 -10.850616 -2.299606 -0.178761 12.269171 6.357938 14.771885 7.721702 0.000000 0.000000 0.000000 0.724263 -0.396673 3.351431 4.854168 -0.643447 -0.946356 -17.016730 -36.690572 9.186806 0.000000 0.000000 0.000000 0.614936 -0.162571 3.500727 -3.623040 1.742477 -0.436672 3.778179 1.931806 14.184684 -0.037599 2.612302 -25.072487 0.000000 0.000000 0.000000 -23.262867 -1.389374 -3.371505 -57.294648 -1.981598 -6.529951 -1.147460 -31.282632 1.215169 0.000000 0.000000 0.000000 18.132220 5.761715 3.483530 55.879011 5.920588 -3.972759 4.702926 30.621918 2.869083 0.000000 0.000000 0.000000 
0.041863 0.936571 0.118605 1.800522 10.049810 -1.810678 2.215562 -0.983657 -11.972470 -2.589165 -0.134425 12.866640 6.684691 15.230771 7.415455 0.000000 0.000000 0.000000 0.577331 -0.339127 2.914541 5.017274 -0.660679 -0.583669 -16.714056 -36.091956 9.150514 0.000000 0.000000 0.000000 0.454681 -0.157806 3.501236 -3.944788 1.897145 -0.677416 3.772599 1.882277 14.339570 -0.510768 2.825688 -25.166250 0.000000 0.000000 0.000000 -23.053568 -2.030889 -2.859965 -57.334650 -2.928030 -6.124448 -0.925260 -31.595103 1.200031 0.000000 0.000000 0.000000 17.933024 6.113683 3.585573 56.270054 6.483573 -3.715462 4.044999 31.469743 2.786199 0.000000 0.000000 0.000000 
0.042218 0.936242 0.118036 1.690828 9.328330 -1.638211 2.536153 -1.034384 -12.900443 -2.819815 -0.053961 12.467622 6.771971 15.500785 8.142921 0.000000 0.000000 0.000000 0.775925 -0.327309 2.780492 4.968732 -0.645714 -0.472091 -15.946331 -34.799571 8.753762 0.000000 0.000000 0.000000 0.459593 -0.152870 3.391238 -4.222834 2.026011 -0.741009 3.699553 2.284424 14.279558 -0.537973 2.868881 -25.630545 0.000000 0.000000 0.000000 -22.924666 -2.411463 -2.635268 -57.316087 -3.838356 -5.671818 -0.437988 -32.204755 1.075922 0.000000 0.000000 0.000000 17.576290 6.141857 3.575109 56.730286 7.256874 -3.324628 3.642887 31.628805 2.705620 0.000000 0.000000 0.000000 
0.043032 0.935931 0.118411 1.603107 8.549288 -1.743660 2.543213 -1.047544 -13.163432 -2.796633 -0.008982 11.604082 6.946224 15.880696 8.903028 0.000000 0.000000 0.000000 0.946187 -0.341131 2.866939 5.031340 -0.646884 -0.111330 -15.291264 -33.648810 8.457959 0.000000 0.000000 0.000000 0.450051 -0.159546 3.541718 -4.465164 2.143005 -1.133940 3.696904 2.601238 14.673170 -0.169735 2.699870 -26.174716 0.000000 0.000000 0.000000 -22.609529 -3.268152 -2.062590 -57.278421 -4.935459 -5.191687 0.126397 -32.851187 0.948970 0.000000 0.000000 0.000000 17.231848 6.557844 3.760614 56.864563 8.526585 -2.734298 3.315061 31.998112 2.656392 0.000000 0.000000 0.000000 
0.044756 0.935623 0.120036 1.227820 7.970435 -1.802670 2.833137 -0.999866 -13.000668 -2.490704 -0.003905 10.060546 6.873382 15.924316 10.028737 0.000000 0.000000 0.000000 1.398574 -0.408502 3.306244 4.873454 -0.618947 -0.126903 -14.678205 -32.583702 8.184066 0.000000 0.000000 0.000000 0.489033 -0.155871 3.438082 -4.566046 2.189708 -1.279248 3.702331 2.882767 14.937202 0.173335 2.555155 -26.712872 0.000000 0.000000 0.000000 -22.514440 -3.734401 -1.776360 -57.344914 -5.938645 -4.742524 0.313787 -33.814944 0.925238 0.000000 0.000000 0.000000 17.098800 7.278313 4.141744 56.993433 9.660800 -2.207310 2.926647 32.286157 2.577913 0.000000 0.000000 0.000000 
0.047879 0.935436 0.123127 1.155351 6.943196 -1.397566 2.647532 -0.989608 -12.807800 -2.201715 0.011035 8.494369 6.952582 16.159260 11.176905 0.000000 0.000000 0.000000 1.179483 -0.371593 3.069689 4.865570 -0.607271 0.382006 -14.083517 -31.519259 7.782202 0.000000 0.000000 0.000000 0.419140 -0.133359 2.992615 -4.764328 2.276356 -1.256258 3.634574 3.310048 14.730521 0.718674 2.261652 -26.816848 0.000000 0.000000 0.000000 -22.159331 -4.068845 -1.501608 -57.739714 -6.374205 -4.563501 0.678300 -34.835807 0.845607 0.000000 0.000000 0.000000 16.965323 8.053527 4.507593 57.014970 10.412619 -1.806618 2.863739 33.266187 2.647170 0.000000 0.000000 0.000000 
0.052553 0.935715 0.127579 1.082909 5.918523 -1.188999 2.190059 -0.961229 -12.113070 -1.730710 -0.005361 6.886112 7.103937 16.454187 12.231313 0.000000 0.000000 0.000000 0.969696 -0.368146 3.114725 4.449732 -0.541148 0.531388 -13.632060 -30.567005 7.907137 0.000000 0.000000 0.000000 0.299809 -0.112867 2.605381 -4.959431 2.363295 -1.358465 3.670560 3.555356 14.800233 0.800572 2.200460 -27.145559 0.000000 0.000000 0.000000 -22.029278 -4.131043 -1.351890 -58.119611 -6.793075 -4.415346 1.220922 -35.915976 0.730784 0.000000 0.000000 0.000000 16.926634 8.699224 4.777972 56.930355 10.944889 -1.546363 3.345031 34.230670 2.866376 0.000000 0.000000 0.000000 
0.058454 0.936236 0.133104 1.054439 4.791348 -0.622457 1.772530 -0.956375 -11.738797 -1.505079 0.011403 5.471088 7.455749 17.010648 13.302880 0.000000 0.000000 0.000000 0.643731 -0.311874 2.739784 4.252614 -0.502882 0.989119 -13.149937 -29.664734 7.628540 0.000000 0.000000 0.000000 0.285959 -0.081517 1.882799 -5.323093 2.523060 -1.434672 3.751377 3.764989 14.568759 1.033462 2.023100 -27.159767 0.000000 0.000000 0.000000 -21.711942 -4.148674 -1.173674 -58.432773 -7.058336 -4.321364 1.358124 -37.330959 0.755593 0.000000 0.000000 0.000000 16.656437 9.375055 5.007389 57.206608 11.209194 -1.362070 3.672788 35.124050 3.027713 0.000000 0.000000 0.000000 
0.065054 0.937058 0.139373 1.022781 3.912445 -0.248045 1.300477 -0.941413 -11.187193 -1.544617 0.048482 4.551961 7.588557 17.161079 13.595331 0.000000 0.000000 0.000000 0.083143 -0.264459 2.512567 4.284627 -0.496539 1.337418 -12.847099 -29.034819 7.646381 0.000000 0.000000 0.000000 0.328981 -0.062110 1.401373 -5.488494 2.595147 -1.431738 3.845797 3.943640 14.497673 1.020646 1.993552 -27.248167 0.000000 0.000000 0.000000 -21.988749 -4.186068 -1.095717 -58.462575 -7.409871 -4.139529 1.998058 -38.961544 0.599359 0.000000 0.000000 0.000000 16.417755 9.826013 5.147552 57.336034 11.333896 -1.268156 3.951431 36.463327 3.244322 0.000000 0.000000 0.000000 
0.071802 0.937715 0.146188 0.912483 3.059179 0.131137 0.873556 -0.925694 -10.685954 -1.490977 0.060699 3.981946 7.717356 17.282317 13.655469 0.000000 0.000000 0.000000 -0.574135 -0.228016 2.429740 4.541319 -0.519117 1.543578 -12.480628 -28.378156 7.282304 0.000000 0.000000 0.000000 0.372386 -0.046085 0.998391 -5.576456 2.632012 -1.444305 3.846015 4.268669 14.362621 1.479140 1.740288 -27.230720 0.000000 0.000000 0.000000 -22.009845 -4.711493 -0.764239 -58.535447 -8.018873 -3.822549 3.192028 -40.466610 0.198197 0.000000 0.000000 0.000000 16.480533 10.492339 5.467906 57.358723 11.787678 -1.021469 3.178589 37.463244 3.093551 0.000000 0.000000 0.000000 
0.078371 0.938262 0.153380 0.795329 2.380342 0.413908 0.548676 -0.900713 -10.176873 -1.627418 0.093944 3.538129 7.806311 17.345178 13.517181 0.000000 0.000000 0.000000 -1.128984 -0.173936 2.122142 4.923575 -0.561705 2.059834 -12.445286 -28.272468 7.295821 0.000000 0.000000 0.000000 0.281875 -0.031470 0.679886 -5.523432 2.608780 -1.254400 3.909096 4.438082 13.945256 1.801524 1.492966 -26.524035 0.000000 0.000000 0.000000 -22.255446 -5.216286 -0.449658 -58.382379 -8.938970 -3.313112 4.805825 -41.500574 -0.387236 0.000000 0.000000 0.000000 17.143075 11.150376 5.820325 56.718546 11.796824 -1.016864 2.470030 38.558199 2.933500 0.000000 0.000000 0.000000 
